<svg width="100" height="100" viewBox="0 0 100 100" fill="none" xmlns="http://www.w3.org/2000/svg">
<mask id="mask0" mask-type="alpha" maskUnits="userSpaceOnUse" x="0" y="0" width="100" height="100">
<rect width="100" height="100" rx="50" fill="#B20EFF"/>
</mask>
<g mask="url(#mask0)">
<rect width="100" height="100" rx="50" fill="#6349CD"/>
<path d="M8.784 73.84C10.704 73.84 11.664 73.072 11.664 71.536C11.664 70.736 11.24 70.144 10.392 69.76C9.944 69.536 9.36 69.328 8.64 69.136C7.936 68.944 7.344 68.752 6.864 68.56C6.4 68.352 5.928 68.072 5.448 67.72C4.504 67.016 4.032 65.936 4.032 64.48C4.032 63.008 4.536 61.856 5.544 61.024C6.568 60.176 7.896 59.752 9.528 59.752C11.176 59.752 12.704 60.08 14.112 60.736V64.336L11.664 64.504V63.112C11.664 62.872 11.632 62.696 11.568 62.584C11.392 62.28 10.824 62.128 9.864 62.128C8.92 62.128 8.216 62.296 7.752 62.632C7.304 62.968 7.08 63.488 7.08 64.192C7.08 64.704 7.272 65.152 7.656 65.536C7.912 65.792 8.288 66.008 8.784 66.184C9.296 66.344 9.832 66.512 10.392 66.688C10.968 66.864 11.472 67.056 11.904 67.264C12.352 67.472 12.816 67.76 13.296 68.128C14.272 68.848 14.76 69.96 14.76 71.464C14.76 72.968 14.216 74.152 13.128 75.016C12.056 75.88 10.632 76.312 8.856 76.312C7.096 76.312 5.512 75.984 4.104 75.328V71.536L6.552 71.368V72.832C6.552 73.072 6.584 73.248 6.648 73.36C6.712 73.472 6.904 73.584 7.224 73.696C7.56 73.792 8.08 73.84 8.784 73.84ZM18.8751 78.28V66.664C18.8751 66.392 18.8271 66.208 18.7311 66.112C18.6511 66 18.4991 65.944 18.2751 65.944L17.2671 65.872V63.928H21.3231V65.488C21.5791 65.008 22.0431 64.568 22.7151 64.168C23.3871 63.768 24.1871 63.568 25.1151 63.568C28.0111 63.568 29.4591 65.6 29.4591 69.664C29.4591 71.824 28.9871 73.48 28.0431 74.632C27.0991 75.784 25.8191 76.36 24.2031 76.36C23.2431 76.36 22.3871 76.128 21.6351 75.664V78.976L23.5791 79.072V80.968H17.3871V79.144L18.1791 79.072C18.4191 79.04 18.5951 78.968 18.7071 78.856C18.8191 78.76 18.8751 78.568 18.8751 78.28ZM26.4831 69.904C26.4831 67.232 25.6751 65.896 24.0591 65.896C23.3871 65.896 22.8111 66.104 22.3311 66.52C21.8671 66.92 21.6351 67.4 21.6351 67.96V73.48C22.2431 73.88 22.9791 74.08 23.8431 74.08C24.7231 74.08 25.3791 73.68 25.8111 72.88C26.2591 72.08 26.4831 71.088 26.4831 69.904ZM45.0917 74.104V76H41.2037V74.44C40.3237 75.688 39.0277 76.312 37.3157 76.312C34.8357 76.312 33.5957 74.928 33.5957 72.16V66.616C33.5957 66.184 33.3957 65.96 32.9957 65.944L32.2277 65.896V63.928H36.4517V71.536C36.4517 72.384 36.5717 73.024 36.8117 73.456C37.0517 73.888 37.5477 74.104 38.2997 74.104C39.0517 74.104 39.6517 73.872 40.0997 73.408C40.5637 72.944 40.7957 72.384 40.7957 71.728V66.664C40.7957 66.408 40.7477 66.232 40.6517 66.136C40.5717 66.024 40.4197 65.96 40.1957 65.944L39.4277 65.896V63.928H43.6517V73.336C43.6517 73.592 43.6917 73.768 43.7717 73.864C43.8517 73.944 44.0117 74 44.2517 74.032L45.0917 74.104ZM49.6888 61.384H51.2488V63.928H54.4408L54.2008 65.944H51.2488V72.256C51.2488 72.96 51.3768 73.456 51.6328 73.744C51.8888 74.016 52.2808 74.152 52.8088 74.152C53.3528 74.152 53.8968 73.984 54.4408 73.648L55.1608 75.496C54.3608 76.056 53.3448 76.336 52.1128 76.336C51.3928 76.336 50.7848 76.24 50.2888 76.048C49.7928 75.872 49.4248 75.672 49.1848 75.448C48.9448 75.224 48.7608 74.896 48.6328 74.464C48.5048 74.032 48.4328 73.696 48.4168 73.456C48.4008 73.2 48.3928 72.832 48.3928 72.352V65.944H46.6888L46.9288 64.192C47.6808 64.128 48.2488 63.864 48.6328 63.4C49.0168 62.92 49.3688 62.248 49.6888 61.384ZM57.1277 65.848V63.928H61.1837V65.488C61.5997 64.896 62.1517 64.432 62.8397 64.096C63.5277 63.744 64.2717 63.568 65.0717 63.568C66.2877 63.568 67.2237 63.92 67.8797 64.624C68.5517 65.312 68.8877 66.352 68.8877 67.744V74.008L70.2557 74.08V76H64.5437V74.176L65.3357 74.104C65.5757 74.072 65.7517 74.008 65.8637 73.912C65.9757 73.8 66.0317 73.6 66.0317 73.312V68.368C66.0317 67.488 65.8957 66.84 65.6237 66.424C65.3517 65.992 64.8317 65.776 64.0637 65.776C63.3117 65.776 62.7117 66.016 62.2637 66.496C61.8157 66.976 61.5917 67.544 61.5917 68.2V74.008L62.9597 74.08V76H57.2477V74.176L58.0397 74.104C58.2797 74.072 58.4557 74.008 58.5677 73.912C58.6797 73.8 58.7357 73.6 58.7357 73.312V66.664C58.7357 66.184 58.5357 65.936 58.1357 65.92L57.1277 65.848ZM77.2063 63.928V74.008L78.5743 74.08V76H72.8623V74.176L73.6543 74.104C74.1183 74.056 74.3503 73.8 74.3503 73.336V66.664C74.3503 66.392 74.3023 66.208 74.2063 66.112C74.1263 66.016 73.9743 65.968 73.7503 65.968L72.9103 65.92V63.928H77.2063ZM74.1823 61.864C73.8463 61.528 73.6783 61.104 73.6783 60.592C73.6783 60.08 73.8463 59.656 74.1823 59.32C74.5183 58.968 74.9583 58.792 75.5023 58.792C76.0463 58.792 76.4863 58.968 76.8223 59.32C77.1743 59.656 77.3503 60.08 77.3503 60.592C77.3503 61.104 77.1743 61.528 76.8223 61.864C76.4863 62.184 76.0463 62.344 75.5023 62.344C74.9583 62.344 74.5183 62.184 74.1823 61.864ZM82.6519 73.312V61.624C82.6519 61.368 82.6039 61.192 82.5079 61.096C82.4279 61 82.2759 60.944 82.0519 60.928L81.2119 60.88V58.888H85.4839V69.28C86.3639 69.2 87.1319 68.928 87.7879 68.464C88.4439 68 88.8919 67.392 89.1319 66.64C89.1799 66.48 89.2039 66.352 89.2039 66.256C89.2039 65.984 89.0519 65.848 88.7479 65.848L87.8359 65.8V63.928H92.8039V65.872L91.6519 65.92C91.4439 67.552 90.7399 68.84 89.5399 69.784L91.8919 74.008L93.3559 74.08V76H89.8519L87.1159 71.008C86.5879 71.152 86.0439 71.264 85.4839 71.344V74.008H85.5079L86.8759 74.08V76H81.1639V74.176L81.9559 74.104C82.1959 74.072 82.3719 74.008 82.4839 73.912C82.5959 73.8 82.6519 73.6 82.6519 73.312Z" fill="white"/>
<line x1="83.8073" y1="11.2642" x2="0.807282" y2="64.2642" stroke="white" stroke-width="3"/>
</g>
</svg>
